<?xml version="1.0" encoding="UTF-8" standalone="no"?><svg xmlns="http://www.w3.org/2000/svg" xmlns:xlink="http://www.w3.org/1999/xlink" contentScriptType="text/ecmascript" fill="#000000" width="500" zoomAndPan="magnify" contentStyleType="text/css" viewBox="0.0 0.0 500.0 500.0" height="500" data-name="Layer 1" preserveAspectRatio="xMidYMid meet" version="1"><g id="change1_1"><path fill="#f0ce21" d="M38.94 0H39.94V500H38.94z"/></g><g id="change1_2"><path fill="#f0ce21" d="M77.22 0H78.22V500H77.22z"/></g><g id="change1_3"><path fill="#f0ce21" d="M115.51 0H116.51V500H115.51z"/></g><g id="change1_4"><path fill="#f0ce21" d="M153.79 0H154.79V500H153.79z"/></g><g id="change1_5"><path fill="#f0ce21" d="M192.07 0H193.07V500H192.07z"/></g><g id="change1_6"><path fill="#f0ce21" d="M230.36 0H231.36V500H230.36z"/></g><g id="change1_7"><path fill="#f0ce21" d="M268.64 0H269.64V500H268.64z"/></g><g id="change1_8"><path fill="#f0ce21" d="M306.93 0H307.93V500H306.93z"/></g><g id="change1_9"><path fill="#f0ce21" d="M345.21 0H346.21V500H345.21z"/></g><g id="change1_10"><path fill="#f0ce21" d="M383.49 0H384.49V500H383.49z"/></g><g id="change1_11"><path fill="#f0ce21" d="M421.78 0H422.78V500H421.78z"/></g><g id="change1_12"><path fill="#f0ce21" d="M460.06 0H461.06V500H460.06z"/></g><g id="change1_13"><path fill="#f0ce21" d="M0 38.94H500V39.94H0z"/></g><g id="change1_14"><path fill="#f0ce21" d="M0 77.22H500V78.22H0z"/></g><g id="change1_15"><path fill="#f0ce21" d="M0 115.51H500V116.51H0z"/></g><g id="change1_16"><path fill="#f0ce21" d="M0 153.79H500V154.79H0z"/></g><g id="change1_17"><path fill="#f0ce21" d="M0 192.07H500V193.07H0z"/></g><g id="change1_18"><path fill="#f0ce21" d="M0 230.36H500V231.36H0z"/></g><g id="change1_19"><path fill="#f0ce21" d="M0 268.64H500V269.64H0z"/></g><g id="change1_20"><path fill="#f0ce21" d="M0 306.93H500V307.93H0z"/></g><g id="change1_21"><path fill="#f0ce21" d="M0 345.21H500V346.21H0z"/></g><g id="change1_22"><path fill="#f0ce21" d="M0 383.49H500V384.49H0z"/></g><g id="change1_23"><path fill="#f0ce21" d="M0 421.78H500V422.78H0z"/></g><g id="change1_24"><path fill="#f0ce21" d="M0 460.06H500V461.06H0z"/></g></svg>