<svg width="723" height="113" viewBox="0 -1.5 723 113" xmlns="http://www.w3.org/2000/svg" xmlns:xlink="http://www.w3.org/1999/xlink" overflow="hidden"><g id="change1_1"><path d="M106.737 29.0877C80.5187 24.4084 50.6851 29.3667 14.4009 56.8284L0 37.8018C40.8454 6.8864 77.2977-0.406 110.929 5.5951 139.116 10.6252 164.314 24.8982 187.026 39.3186L171.176 57.5448C149.992 44.2805 129.191 33.0946 106.737 29.0878Z" fill="#3E3A39"/></g><g id="change2_1"><path d="M359.074 70.2669C326.441 102.723 295.603 111.568 265.172 105.909 237.955 100.849 212.384 84.2109 188.521 68.6844L188.514 68.6795C187.221 67.8389 185.934 67.0008 184.652 66.1687 184.022 65.7606 183.393 65.3525 182.766 64.9456L198.959 47.0057 199.684 47.4759 199.684 47.4771C225.216 64.0562 247.121 78.2804 269.534 82.4481 290.809 86.405 314.041 81.4004 342.247 53.3466 344.031 51.5716 345.805 49.8466 347.568 48.1703L363.444 66.0042C362 67.3845 360.545 68.8049 359.074 70.2668Z" fill="#3E3A39"/></g><g id="change3_1"><path d="M523.04 56.0889C497.27 38.9981 474.683 25.3855 449.784 23.982 429.221 22.8222 405.031 30.0196 374.687 55.8416L359.076 37.7982C392.675 9.1816 422.618-1.4512 451.127 0.1568 483.38 1.9744 511.078 19.522 536.229 36.2022 537.943 37.3376 539.646 38.4706 541.341 39.5987L543.271 40.8827 527.79 59.2502C526.195 58.1855 524.612 57.1304 523.041 56.0889Z" fill="#3E3A39"/></g><g id="change4_1"><path d="M613.394 76.4227C639.52 82.4006 670.09 78.9323 709.546 51.9591L723.013 71.6581C678.948 101.784 641.657 107.37 608.072 99.6851 582.765 93.8936 560.293 80.6208 539.863 67.2566L555.203 48.7441C574.285 61.1044 592.848 71.7214 613.394 76.4226Z" fill="#3E3A39"/></g></svg>