<?xml version="1.0" encoding="UTF-8" standalone="no"?><svg xmlns="http://www.w3.org/2000/svg" xmlns:xlink="http://www.w3.org/1999/xlink" contentScriptType="text/ecmascript" fill="#000000" width="723" zoomAndPan="magnify" contentStyleType="text/css" viewBox="0.0 -1.5 723.0 113.0" height="113" data-name="Layer 1" preserveAspectRatio="xMidYMid meet" version="1"><g id="change1_1"><path fill="#ecf0f3" d="M106.7366,29.0877c-26.2179-4.6793-56.0515.279-92.3357,27.7407L0,37.8018C40.8454,6.8864,77.2977-.406,110.9286,5.5951c28.1878,5.0301,53.3859,19.3031,76.0977,33.7235l-15.8506,18.2262c-21.1841-13.2643-41.9844-24.4502-64.4391-28.457Z"/></g><g id="change2_1"><path fill="#ecf0f3" d="M359.0743,70.2669c-32.6332,32.4565-63.4718,41.301-93.9024,35.6422-27.2168-5.0606-52.7878-21.6982-76.6508-37.2247l-.0073-.0049c-1.2926-.8406-2.5803-1.6787-3.8619-2.5108-.6298-.4081-1.2584-.8162-1.8858-1.2231l16.1929-17.9399.7249.4702v.0012c25.532,16.5791,47.4373,30.8033,69.8505,34.971,21.2742,3.9569,44.5062-1.0477,72.7122-29.1015,1.7847-1.775,3.5585-3.5,5.3213-5.1763l15.8762,17.8339c-1.4436,1.3803-2.8994,2.8007-4.3698,4.2626Z"/></g><g id="change3_1"><path fill="#ecf0f3" d="M523.0404,56.0889c-25.7708-17.0908-48.357-30.7034-73.2568-32.1069-20.5628-1.1598-44.7522,6.0376-75.0963,31.8596l-15.6118-18.0434C392.6747,9.1816,422.6179-1.4512,451.1273.1568c32.2531,1.8176,59.9511,19.3652,85.1018,36.0454,1.7141,1.1354,3.4172,2.2684,5.1118,3.3965l1.9297,1.284-15.4802,18.3675c-1.5959-1.0647-3.1784-2.1198-4.7499-3.1613Z"/></g><g id="change4_1"><path fill="#ecf0f3" d="M613.3945,76.4227c26.1254,5.9779,56.6957,2.5096,96.1511-24.4636l13.4678,19.699c-44.0655,30.126-81.3561,35.7117-114.9418,28.027-25.3067-5.7915-47.7785-19.0643-68.2085-32.4285l15.3401-18.5125c19.0814,12.3603,37.645,22.9773,58.1912,27.6785Z"/></g></svg>