<?xml version="1.0" encoding="UTF-8" standalone="no"?><svg xmlns="http://www.w3.org/2000/svg" xmlns:xlink="http://www.w3.org/1999/xlink" contentScriptType="text/ecmascript" fill="none" width="160" zoomAndPan="magnify" style="fill: none" contentStyleType="text/css" viewBox="30.0 30.0 100.0 100.0" height="160" preserveAspectRatio="xMidYMid meet" version="1"><g id="change1_1" filter="url(#a)"><rect rx="34" x="46" width="68" fill="#000000" y="46" height="68"/></g><g id="change2_1"><rect rx="25" x="55" width="50" fill="#000000" y="55" height="50"/></g><g id="change3_1"><path fill="#000000" d="M72 92H88C89.1067 92 90 91.1067 90 90V79.3333C90 78.2267 89.1067 77.3333 88 77.3333H86V74C86 70.6933 83.3067 68 80 68C76.6933 68 74 70.6933 74 74V77.3333H72C70.8933 77.3333 70 78.2267 70 79.3333V90C70 91.1067 70.8933 92 72 92ZM75.3333 74C75.3333 71.4267 77.4267 69.3333 80 69.3333C82.5733 69.3333 84.6667 71.4267 84.6667 74V77.3333H75.3333V74ZM71.3333 79.3333C71.3333 78.96 71.6267 78.6667 72 78.6667H88C88.3733 78.6667 88.6667 78.96 88.6667 79.3333V90C88.6667 90.3733 88.3733 90.6667 88 90.6667H72C71.6267 90.6667 71.3333 90.3733 71.3333 90V79.3333Z"/></g><g id="change3_2"><path fill="#000000" d="M80.6654 82.667H79.332V86.667H80.6654V82.667Z"/></g><defs><filter x="30" color-interpolation-filters="sRGB" y="30" width="100" xlink:type="simple" filterUnits="userSpaceOnUse" xlink:actuate="onLoad" id="a" height="100" xlink:show="other"><feFlood result="BackgroundImageFix" flood-opacity="0"/><feBlend result="shape" in2="BackgroundImageFix" in="SourceGraphic"/><feGaussianBlur stdDeviation="8" result="effect1_foregroundBlur_139_507"/></filter></defs></svg>