<?xml version="1.0" encoding="UTF-8" standalone="no"?><svg xmlns="http://www.w3.org/2000/svg" xmlns:xlink="http://www.w3.org/1999/xlink" contentScriptType="text/ecmascript" fill="none" width="160" zoomAndPan="magnify" style="fill: none" contentStyleType="text/css" viewBox="30.0 30.0 100.0 100.0" height="160" preserveAspectRatio="xMidYMid meet" version="1"><g id="change1_1" filter="url(#a)"><rect rx="34" x="46" width="68" fill="#000000" y="46" height="68"/></g><g id="change2_1"><rect rx="25" x="55" width="50" fill="#000000" y="55" height="50"/></g><g id="change3_1"><path fill="#000000" d="M90.1765 70.1176C90.1765 68.9459 89.2306 68 88.0588 68H72.5294C71.3576 68 70.4118 68.9459 70.4118 70.1176V70.8235H69V72.2353H70.4118V79.2941H69V80.7059H70.4118V87.7647H69V89.1765H70.4118V89.8824C70.4118 91.0541 71.3576 92 72.5294 92H88.0588C89.2306 92 90.1765 91.0541 90.1765 89.8824V70.1176ZM85.9412 69.4118V77.12L83.5553 75.2141C83.4282 75.1153 83.2729 75.0588 83.1176 75.0588C82.9624 75.0588 82.8071 75.1153 82.68 75.2141L80.2941 77.12V69.4118H85.9412ZM88.7647 89.8824C88.7647 90.2776 88.4541 90.5882 88.0588 90.5882H72.5294C72.1341 90.5882 71.8235 90.2776 71.8235 89.8824V70.1176C71.8235 69.7224 72.1341 69.4118 72.5294 69.4118H78.8824V78.5882C78.8824 78.8565 79.0376 79.1106 79.2776 79.2235C79.5318 79.3365 79.814 79.3083 80.0259 79.1388L83.1176 76.6683L86.2094 79.1388C86.3365 79.2375 86.4918 79.2941 86.6471 79.2941C86.7459 79.2941 86.8588 79.2659 86.9576 79.2235C87.1976 79.1106 87.3529 78.8565 87.3529 78.5882V69.4118H88.0588C88.4541 69.4118 88.7647 69.7224 88.7647 70.1176V89.8824Z"/></g><defs><filter x="30" color-interpolation-filters="sRGB" y="30" width="100" xlink:type="simple" filterUnits="userSpaceOnUse" xlink:actuate="onLoad" id="a" height="100" xlink:show="other"><feFlood result="BackgroundImageFix" flood-opacity="0"/><feBlend result="shape" in2="BackgroundImageFix" in="SourceGraphic"/><feGaussianBlur stdDeviation="8" result="effect1_foregroundBlur_139_395"/></filter></defs></svg>